HIERARCHY
ROOT Hips
{
	OFFSET 0.000000 0.000000 0.000000
	CHANNELS 6 Xposition Yposition Zposition Zrotation Yrotation Xrotation 
	JOINT LeftUpLeg_virtual
	{
		OFFSET 0.000000 0.000000 0.000000
		CHANNELS 3 Zrotation Yrotation Xrotation
		JOINT LeftUpLeg
		{
			OFFSET 8.479694 -4.795517 -0.379053
			CHANNELS 3 Zrotation Yrotation Xrotation
			JOINT LeftLeg
			{
				OFFSET 0.485052 -32.551468 0.112863
				CHANNELS 3 Zrotation Yrotation Xrotation
				JOINT LeftFoot
				{
					OFFSET 0.438033 -32.635670 -3.012641
					CHANNELS 3 Zrotation Yrotation Xrotation
					JOINT LeftToeBase
					{
						OFFSET 0.970169 -13.225353 11.864223
						CHANNELS 3 Zrotation Yrotation Xrotation
						End Site
						{
							OFFSET 0.000000 0.000000 0.000000
						}
					}
				}
			}
		}
	}
	JOINT RightUpLeg_virtual
	{
		OFFSET 0.000000 0.000000 0.000000
		CHANNELS 3 Zrotation Yrotation Xrotation
		JOINT RightUpLeg
		{
			OFFSET -8.479694 -4.795517 -0.379053
			CHANNELS 3 Zrotation Yrotation Xrotation
			JOINT RightLeg
			{
				OFFSET -0.484100 -32.551483 0.112903
				CHANNELS 3 Zrotation Yrotation Xrotation
				JOINT RightFoot
				{
					OFFSET -0.438985 -32.635651 -3.012681
					CHANNELS 3 Zrotation Yrotation Xrotation
					JOINT RightToeBase
					{
						OFFSET -0.970169 -13.225354 11.864223
						CHANNELS 3 Zrotation Yrotation Xrotation
						End Site
						{
							OFFSET 0.000000 0.000000 0.000000
						}
					}
				}
			}
		}
	}
	JOINT Spine_virtual
	{
		OFFSET 0.000000 0.000000 0.000000
		CHANNELS 3 Zrotation Yrotation Xrotation
		JOINT Spine
		{
			OFFSET 0.000000 7.722015 1.166203
			CHANNELS 3 Zrotation Yrotation Xrotation
			JOINT Spine1
			{
				OFFSET 0.000000 12.024086 0.248766
				CHANNELS 3 Zrotation Yrotation Xrotation
				JOINT Spine2
				{
					OFFSET -0.000000 11.503036 -0.491240
					CHANNELS 3 Zrotation Yrotation Xrotation
					JOINT Neck_virtual
					{
						OFFSET 0.000000 0.000000 0.000000
						CHANNELS 3 Zrotation Yrotation Xrotation
						JOINT Neck
						{
							OFFSET 0.000000 18.430687 -3.123054
							CHANNELS 3 Zrotation Yrotation Xrotation
							JOINT Head
							{
								OFFSET -0.000000 9.051071 1.034021
								CHANNELS 3 Zrotation Yrotation Xrotation
								End Site
								{
									OFFSET 0.000000 0.000000 0.000000
								}
							}
						}
					}
					JOINT LeftShoulder_virtual
					{
						OFFSET 0.000000 0.000000 0.000000
						CHANNELS 3 Zrotation Yrotation Xrotation
						JOINT LeftShoulder
						{
							OFFSET 6.197824 13.665230 -4.064723
							CHANNELS 3 Zrotation Yrotation Xrotation
							JOINT LeftArm
							{
								OFFSET 7.778132 -0.187073 -1.709282
								CHANNELS 3 Zrotation Yrotation Xrotation
								JOINT LeftForeArm
								{
									OFFSET 21.954697 0.000000 -2.041093
									CHANNELS 3 Zrotation Yrotation Xrotation
									JOINT LeftHand
									{
										OFFSET 22.992908 0.000000 -0.870901
										CHANNELS 3 Zrotation Yrotation Xrotation
										End Site
										{
											OFFSET 0.000000 0.000000 0.000000
										}
									}
								}
							}
						}
					}
					JOINT RightShoulder_virtual
					{
						OFFSET 0.000000 0.000000 0.000000
						CHANNELS 3 Zrotation Yrotation Xrotation
						JOINT RightShoulder
						{
							OFFSET -6.197824 13.665230 -4.064723
							CHANNELS 3 Zrotation Yrotation Xrotation
							JOINT RightArm
							{
								OFFSET -7.778132 -0.187073 -1.709282
								CHANNELS 3 Zrotation Yrotation Xrotation
								JOINT RightForeArm
								{
									OFFSET -21.954697 0.000000 -2.041093
									CHANNELS 3 Zrotation Yrotation Xrotation
									JOINT RightHand
									{
										OFFSET -22.992908 0.000000 -0.870901
										CHANNELS 3 Zrotation Yrotation Xrotation
										End Site
										{
											OFFSET 0.000000 0.000000 0.000000
										}
									}
								}
							}
						}
					}
				}
			}
		}
	}
}
MOTION
Frames: 13
Frame Time: 0.033333
-7.487773 81.436882 -50.790951 179.865764 -4.442836 179.876228 -2.742167 0.756263 12.608718 1.238593 -3.570728 -24.614726 5.585479 6.195946 31.477398 2.684241 -7.272365 -14.975408 0.000000 0.000000 0.000000 -2.107704 -1.231957 13.083896 -0.915554 -0.118955 -22.029406 -1.720692 3.104628 28.332033 9.869872 2.607535 -13.717549 0.000000 0.000000 0.000000 1.647768 2.239800 1.803916 -4.466808 -1.124332 -3.832750 -0.070395 -2.710367 4.656247 0.016359 -0.011273 -0.087369 0.076997 -1.853115 4.664411 -0.745474 2.146291 -1.493013 0.000000 0.000000 0.000000 1.867587 -1.054723 1.403339 -0.422924 7.862594 -7.136439 6.773263 -17.381979 -54.562649 -0.010975 -29.496988 -2.325418 0.000000 0.000000 0.000000 -2.752166 0.172975 0.482857 19.230251 -11.558067 -17.295610 1.071154 5.675715 -66.890781 0.763392 19.895096 3.227485 0.000000 0.000000 0.000000 
-7.495481 81.436813 -50.687275 179.794485 -4.292725 179.714667 -2.556569 0.893683 12.420318 1.000107 -3.549728 -24.717118 5.708908 6.740148 31.260372 3.350931 -6.636286 -15.185529 0.000000 0.000000 0.000000 -2.999252 -1.212677 12.862763 0.161108 -0.369789 -22.201873 -1.886519 2.473378 28.059076 9.270872 1.915572 -14.294526 0.000000 0.000000 0.000000 1.659564 2.256404 1.928257 -4.490447 -1.087199 -3.783276 -0.108159 -2.702520 4.650015 0.007862 -0.004911 -0.087177 0.093692 -1.820363 4.631646 -0.760614 2.139779 -1.470783 0.000000 0.000000 0.000000 1.890185 -1.037400 1.376181 -0.380431 7.925296 -7.111788 6.590372 -17.368063 -54.521049 -0.031592 -29.539912 -2.332999 0.000000 0.000000 0.000000 -2.743727 0.229087 0.462912 19.260056 -11.550373 -17.251712 1.112735 5.552972 -66.787830 0.777135 20.258292 3.194779 0.000000 0.000000 0.000000 
-7.480427 81.431366 -50.586979 179.820125 -4.399531 179.729461 -2.496688 0.869608 12.322840 0.978152 -3.595646 -24.712434 5.725051 6.770016 31.294667 3.331404 -6.656906 -15.196428 0.000000 0.000000 0.000000 -2.755032 -1.274780 12.768929 -0.124026 -0.462611 -22.235305 -1.745992 2.455716 28.166157 9.327830 1.895260 -14.340276 0.000000 0.000000 0.000000 1.705038 2.221564 1.919059 -4.454451 -1.098814 -3.737994 -0.106754 -2.712653 4.681292 -0.020106 -0.012372 -0.098972 0.142054 -1.795778 4.671194 -0.698945 2.112747 -1.527366 0.000000 0.000000 0.000000 1.942546 -1.071928 1.389904 -0.511533 7.890841 -7.084033 6.603026 -17.286541 -54.488824 -0.045065 -29.425452 -2.314929 0.000000 0.000000 0.000000 -2.696815 0.128435 0.466391 19.341981 -11.556168 -17.247565 1.019943 5.532387 -66.716810 0.822938 20.795547 3.202316 0.000000 0.000000 0.000000 
-7.454841 81.428879 -50.508862 179.917647 -4.299786 179.729229 -2.440975 0.924478 12.265852 1.038525 -3.566814 -24.763153 5.714274 6.786292 31.333185 3.293587 -6.681105 -15.249263 0.000000 0.000000 0.000000 -2.463842 -1.251437 12.673200 -0.379105 -0.468330 -22.318476 -1.615220 2.483484 28.328022 9.345832 1.805549 -14.340090 0.000000 0.000000 0.000000 1.773879 2.200522 1.934217 -4.395024 -1.094639 -3.761264 -0.056254 -2.718206 4.684935 0.032483 -0.016636 -0.084375 0.114697 -1.831684 4.675358 -0.646305 2.112841 -1.516028 0.000000 0.000000 0.000000 1.861164 -0.995322 1.442315 -0.581091 7.943374 -7.072735 6.450886 -17.323332 -54.469710 -0.085602 -29.344156 -2.290793 0.000000 0.000000 0.000000 -2.770600 0.205908 0.505377 19.320896 -11.473260 -17.199094 1.017302 5.421313 -66.657551 0.933451 21.335295 3.124671 0.000000 0.000000 0.000000 
-7.420491 81.431610 -50.458809 179.951989 -4.399636 179.724366 -2.485937 0.941436 12.262051 1.122883 -3.545683 -24.866200 5.747808 6.743627 31.425004 3.198529 -6.718118 -15.308645 0.000000 0.000000 0.000000 -1.923522 -1.392910 12.619947 -0.949452 -0.709167 -22.462423 -1.516459 2.398863 28.636734 9.600841 1.891646 -14.486993 0.000000 0.000000 0.000000 1.813153 2.180596 2.016561 -4.394125 -1.073950 -3.783754 -0.054933 -2.693790 4.697449 0.021098 -0.017732 -0.080313 0.096977 -1.817599 4.757117 -0.563994 2.141183 -1.415840 0.000000 0.000000 0.000000 1.836369 -1.023939 1.522198 -0.668655 7.894825 -7.044650 6.270707 -17.292393 -54.398724 -0.140722 -29.177796 -2.296409 0.000000 0.000000 0.000000 -2.784861 0.210419 0.579616 19.311074 -11.428593 -17.062118 0.987193 5.199442 -66.601803 1.008176 21.553823 2.991338 0.000000 0.000000 0.000000 
-7.380749 81.438187 -50.406281 179.911472 -4.326202 179.742111 -2.524410 0.957272 12.286338 1.131344 -3.489271 -25.007672 5.782970 6.714350 31.533156 3.131908 -6.702415 -15.342090 0.000000 0.000000 0.000000 -1.592296 -1.488968 12.571570 -1.323498 -0.866641 -22.619095 -1.450227 2.418015 28.888654 9.825587 1.919480 -14.512644 0.000000 0.000000 0.000000 1.798496 2.104364 2.007308 -4.419811 -1.081559 -3.749142 -0.092746 -2.682836 4.747177 -0.005197 -0.053248 -0.105575 0.126146 -1.714662 4.830821 -0.469548 2.136348 -1.470065 0.000000 0.000000 0.000000 1.865451 -0.906376 1.556224 -0.670127 7.884850 -6.979116 5.988073 -17.192776 -54.312705 -0.252977 -29.176335 -2.240062 0.000000 0.000000 0.000000 -2.746895 0.301209 0.613487 19.333539 -11.240798 -17.056944 0.850708 4.953421 -66.715614 1.181925 21.338307 2.825571 0.000000 0.000000 0.000000 
-7.339574 81.451607 -50.325737 179.973381 -4.314240 179.750840 -2.676411 0.986615 12.277055 1.414491 -3.306857 -25.183097 5.778325 6.728509 31.666960 2.947728 -6.765991 -15.363641 0.000000 0.000000 0.000000 -1.912134 -1.466991 12.540101 -0.914438 -0.656811 -22.746654 -1.348343 2.600521 29.074094 9.702454 1.555395 -14.427018 0.000000 0.000000 0.000000 1.828077 2.078269 2.019290 -4.402400 -1.037010 -3.708150 -0.087915 -2.616232 4.795819 0.007656 -0.033902 -0.073720 0.075659 -1.715411 4.827338 -0.330063 2.097646 -1.393174 0.000000 0.000000 0.000000 1.784280 -0.930716 1.577556 -0.673170 7.708460 -6.923883 5.798644 -17.110850 -54.276228 -0.318010 -29.110229 -2.252991 0.000000 0.000000 0.000000 -2.820628 0.291516 0.637107 19.332552 -11.299705 -16.822373 0.869011 4.979763 -66.660597 1.133963 20.873862 2.553262 0.000000 0.000000 0.000000 
-7.297058 81.468437 -50.203171 179.955773 -4.203656 179.762041 -2.680846 1.002669 12.234367 1.430811 -3.157418 -25.318041 5.758608 6.747964 31.788541 2.839193 -6.810650 -15.356362 0.000000 0.000000 0.000000 -1.959727 -1.477347 12.447574 -0.820322 -0.600021 -22.899695 -1.294506 2.720567 29.331185 9.800768 1.380556 -14.354616 0.000000 0.000000 0.000000 1.817981 2.058514 2.048934 -4.410451 -1.027155 -3.624491 -0.098318 -2.553380 4.789039 0.014200 -0.028099 -0.077157 0.029693 -1.660334 4.870398 -0.207654 2.014730 -1.436071 0.000000 0.000000 0.000000 1.721374 -0.858189 1.702664 -0.619696 7.645440 -6.837781 5.557821 -17.170474 -54.235790 -0.374809 -29.163036 -2.271143 0.000000 0.000000 0.000000 -2.831666 0.323196 0.713317 19.413194 -11.284681 -16.734908 0.853010 4.973256 -66.754929 1.203368 20.374523 2.303672 0.000000 0.000000 0.000000 
-7.254391 81.481895 -50.040382 179.972029 -3.968311 179.807175 -2.679143 1.072771 12.140223 1.458991 -2.970576 -25.453431 5.732910 6.783568 31.904350 2.753403 -6.852780 -15.368337 0.000000 0.000000 0.000000 -1.888029 -1.425449 12.303489 -0.897176 -0.583393 -23.118671 -1.223492 2.849643 29.652013 9.945635 1.233718 -14.257921 0.000000 0.000000 0.000000 1.789866 2.061603 2.009448 -4.413509 -1.025462 -3.465761 -0.102916 -2.480874 4.851928 0.014128 -0.016733 -0.077979 0.012653 -1.602806 4.839479 -0.075155 1.906253 -1.642905 0.000000 0.000000 0.000000 1.682849 -0.762627 1.707954 -0.508841 7.564230 -6.719415 5.148775 -17.126967 -54.159357 -0.408318 -29.306481 -2.282604 0.000000 0.000000 0.000000 -2.870783 0.382482 0.711604 19.492462 -11.331395 -16.499819 0.905894 4.996519 -67.014722 1.186550 20.028365 1.889181 0.000000 0.000000 0.000000 
-7.195361 81.490349 -49.835396 179.898153 -3.841216 179.831805 -2.672232 1.082182 12.033805 1.390930 -2.933052 -25.619432 5.781608 6.723665 32.018909 2.724613 -6.866262 -15.412339 0.000000 0.000000 0.000000 -1.374114 -1.577758 12.168468 -1.451639 -0.939798 -23.466558 -1.151797 2.850421 30.211112 10.401084 1.392305 -14.266309 0.000000 0.000000 0.000000 1.713007 2.074098 2.042095 -4.460265 -1.050181 -3.249563 -0.127662 -2.402080 4.866403 -0.031692 -0.020312 -0.059292 0.051301 -1.438175 4.770567 0.067699 1.769906 -1.807954 0.000000 0.000000 0.000000 1.729285 -0.720347 1.704590 -0.328640 7.397385 -6.602290 4.576796 -17.179415 -54.041983 -0.383218 -29.451089 -2.379865 0.000000 0.000000 0.000000 -2.798240 0.420592 0.613249 19.626636 -11.426441 -16.043797 0.984265 5.159118 -67.372774 1.147213 19.708972 1.367737 0.000000 0.000000 0.000000 
-7.141519 81.493553 -49.581352 179.914177 -3.640133 179.833253 -2.713133 1.136989 11.967998 1.443954 -2.851755 -25.884971 5.858348 6.656177 32.186454 2.707420 -6.869024 -15.483938 0.000000 0.000000 0.000000 -1.210040 -1.546064 12.083607 -1.570393 -1.082823 -23.977898 -1.086115 2.929143 30.774742 10.650538 1.348674 -14.115674 0.000000 0.000000 0.000000 1.688352 2.105639 2.165260 -4.465100 -1.082027 -2.945522 -0.073580 -2.347442 4.847163 0.014614 -0.025410 -0.106236 -0.002414 -1.454555 4.711111 0.181609 1.651906 -2.154888 0.000000 0.000000 0.000000 1.672193 -0.713885 1.705709 -0.145618 7.124981 -6.423421 3.820909 -17.137510 -53.850280 -0.352138 -29.680157 -2.378779 0.000000 0.000000 0.000000 -2.814534 0.471248 0.606486 19.572428 -11.467913 -15.752248 1.263477 5.572935 -67.837439 1.221151 19.369976 0.960188 0.000000 0.000000 0.000000 
-7.082913 81.496407 -49.261513 179.984050 -3.261160 179.876310 -2.794495 1.354208 11.973333 1.605561 -2.850216 -26.313509 5.978526 6.595196 32.432897 2.730722 -6.807667 -15.563114 0.000000 0.000000 0.000000 -1.084565 -1.404145 12.009485 -1.587538 -1.117271 -24.771711 -1.041799 3.078558 31.455521 11.005389 1.209070 -13.886840 0.000000 0.000000 0.000000 1.703312 2.083461 2.363798 -4.447064 -1.135622 -2.523244 -0.018280 -2.317110 4.821037 0.014738 -0.072665 -0.095942 0.000383 -1.362525 4.618548 0.236422 1.573242 -2.543007 0.000000 0.000000 0.000000 1.697401 -0.511061 1.609272 0.125238 6.999819 -6.204334 2.787297 -17.151117 -53.708762 -0.199790 -29.995851 -2.421918 0.000000 0.000000 0.000000 -2.774822 0.692943 0.618538 19.491225 -11.245194 -15.261977 1.343722 6.184128 -68.554103 1.279078 18.967963 0.447028 0.000000 0.000000 0.000000 
-7.017475 81.497818 -48.852428 179.902757 -2.799949 179.884397 -2.877871 1.666268 12.098094 1.615207 -3.020798 -26.861295 6.136656 6.495292 32.740122 2.823836 -6.657244 -15.598023 0.000000 0.000000 0.000000 -0.844454 -1.289498 12.039469 -1.769329 -1.414542 -25.787977 -1.182748 3.225004 32.458517 11.228504 1.492377 -13.602336 0.000000 0.000000 0.000000 1.710289 2.164830 2.706307 -4.467990 -1.052132 -1.930573 -0.001862 -2.136032 4.817349 -0.016518 0.005120 -0.062931 0.117569 -1.194801 4.470923 0.406695 1.383587 -3.037662 0.000000 0.000000 0.000000 1.755979 -0.403268 1.544518 0.475808 6.612719 -5.988225 1.589532 -17.231949 -53.750351 0.073085 -30.376775 -2.598935 0.000000 0.000000 0.000000 -2.666752 0.732903 0.460372 19.212916 -11.121339 -14.424892 1.532025 6.930908 -68.964570 1.169476 18.732702 -0.272669 0.000000 0.000000 0.000000 
